<?xml version="1.0" encoding="utf-8"?><svg viewBox="0 0 112 42" xmlns="http://www.w3.org/2000/svg" xmlns:xlink="http://www.w3.org/1999/xlink"><style>:root>svg{display:none}:root>svg:target{display:block}</style><svg fill="none" viewBox="0 0 14 8" id="arrow" xmlns="http://www.w3.org/2000/svg"><path d="M7 8 .938.5h12.124L7 8Z" fill="#272727"/></svg><svg fill="none" viewBox="0 0 14 8" id="arrow-white" xmlns="http://www.w3.org/2000/svg"><path d="M7 8 .938.5h12.124L7 8Z" fill="#fff"/></svg><svg fill="none" viewBox="0 0 24 24" id="cart" xmlns="http://www.w3.org/2000/svg"><path d="M23.991 23.402 22.017 6.695c-.032-.27-.296-.478-.592-.478h-3.651V5.2C17.774 2.33 15.208 0 12.049 0 8.891 0 6.325 2.331 6.325 5.2v1.017h-3.75c-.296 0-.56.209-.593.478L.01 23.402c-.033.15.032.3.131.419.099.12.263.179.428.179h22.864c.165 0 .33-.06.428-.18.099-.119.164-.268.131-.418Zm-6.81-14.167c.297 0 .527.21.527.479s-.23.478-.526.478c-.297 0-.527-.21-.527-.478 0-.27.23-.479.526-.479ZM7.51 5.201c0-2.272 2.04-4.125 4.54-4.125s4.54 1.853 4.54 4.124v1.017H7.51V5.2Zm-.592 4.034c.296 0 .527.21.527.479s-.23.478-.527.478c-.296 0-.526-.21-.526-.478 0-.27.23-.479.526-.479ZM1.26 22.895 3.1 7.262h3.224v.986c-.658.21-1.119.777-1.119 1.435 0 .837.757 1.524 1.678 1.524.921 0 1.678-.688 1.678-1.524 0-.658-.46-1.226-1.118-1.435v-.986h9.08v.986c-.658.21-1.119.777-1.119 1.435 0 .837.757 1.524 1.678 1.524.92 0 1.678-.688 1.678-1.524 0-.658-.461-1.226-1.119-1.435v-.986h3.356l1.842 15.631H1.259Z" fill="#272727"/></svg><svg fill="none" viewBox="0 0 12 12" id="close-search" xmlns="http://www.w3.org/2000/svg"><g opacity=".4" clip-path="url(#clip0_7_63)"><path d="M9.5 3.205 8.795 2.5 6 5.295 3.205 2.5l-.705.705L5.295 6 2.5 8.795l.705.705L6 6.705 8.795 9.5l.705-.705L6.705 6 9.5 3.205Z" fill="#272727"/></g></svg><svg fill="none" viewBox="0 0 42 42" id="facebook" xmlns="http://www.w3.org/2000/svg"><path d="M42 21C42 9.4 32.6 0 21 0S0 9.4 0 21s9.4 21 21 21c.123 0 .246 0 .37-.008v-16.34h-4.513v-5.259h4.512v-3.872c0-4.487 2.74-6.932 6.743-6.932 1.92 0 3.569.14 4.044.206v4.692H29.4c-2.174 0-2.6 1.033-2.6 2.55v3.348h5.209l-.681 5.258H26.8v15.545C35.577 38.669 42 30.589 42 21Z" fill="currentColor"/></svg><svg fill="none" viewBox="0 0 26 24" id="favorite" xmlns="http://www.w3.org/2000/svg"><path d="M19.094 0c-1.411 0-2.705.467-3.845 1.39-1.093.883-1.82 2.01-2.249 2.828-.428-.819-1.156-1.945-2.25-2.829C9.61.467 8.318 0 6.907 0 2.97 0 0 3.367 0 7.833c0 4.824 3.704 8.124 9.312 13.12.952.85 2.031 1.811 3.153 2.837a.791.791 0 0 0 1.07 0 325.662 325.662 0 0 1 3.154-2.837C22.296 15.957 26 12.657 26 7.833 26 3.367 23.03 0 19.094 0Z" fill="#fff"/><path d="M24.103 2.358C22.821.838 21.042 0 19.093 0c-2.739 0-4.473 1.71-5.446 3.144-.252.372-.467.745-.647 1.096a10.49 10.49 0 0 0-.647-1.096C11.38 1.71 9.646 0 6.906 0 4.958 0 3.18.837 1.896 2.358.675 3.808 0 5.75 0 7.827c0 2.26.845 4.363 2.658 6.616 1.62 2.014 3.953 4.09 6.653 6.495 1.006.896 2.046 1.822 3.154 2.835l.033.03a.74.74 0 0 0 1.004 0l.033-.03c1.108-1.013 2.148-1.94 3.154-2.835 2.7-2.404 5.032-4.48 6.653-6.495C25.155 12.19 26 10.087 26 7.827c0-2.077-.674-4.019-1.897-5.47Zm-8.402 17.368c-.867.772-1.76 1.567-2.701 2.422-.941-.855-1.834-1.65-2.701-2.422-5.285-4.705-8.776-7.813-8.776-11.899 0-1.689.539-3.258 1.517-4.417.989-1.172 2.362-1.818 3.866-1.818 2.089 0 3.439 1.344 4.204 2.472a9.619 9.619 0 0 1 1.166 2.423c.102.327.394.549.724.549.33 0 .622-.222.724-.55a9.62 9.62 0 0 1 1.166-2.422c.765-1.128 2.115-2.472 4.204-2.472 1.504 0 2.877.646 3.866 1.818.978 1.16 1.517 2.728 1.517 4.417 0 4.086-3.491 7.194-8.776 11.9Z" fill="#272727"/></svg><svg fill="none" viewBox="0 0 42 42" id="inst" xmlns="http://www.w3.org/2000/svg"><path d="M25.02 21a4.02 4.02 0 1 1-8.04 0 4.02 4.02 0 0 1 8.04 0Z" fill="currentColor"/><path d="M30.4 13.888a3.736 3.736 0 0 0-.902-1.386 3.734 3.734 0 0 0-1.386-.902c-.425-.165-1.063-.362-2.24-.415-1.271-.058-1.652-.07-4.872-.07-3.22 0-3.601.011-4.873.07-1.175.053-1.814.25-2.239.415a3.73 3.73 0 0 0-1.386.902c-.4.389-.709.862-.903 1.386-.165.425-.361 1.064-.415 2.24-.058 1.271-.07 1.652-.07 4.872 0 3.22.012 3.601.07 4.873.054 1.176.25 1.814.415 2.239.194.524.502.998.902 1.387.39.4.863.708 1.387.902.425.165 1.063.361 2.24.415 1.27.058 1.652.07 4.872.07 3.22 0 3.601-.012 4.872-.07 1.176-.054 1.815-.25 2.24-.415a3.993 3.993 0 0 0 2.288-2.289c.165-.425.362-1.063.416-2.239.058-1.272.07-1.653.07-4.873s-.012-3.601-.07-4.872c-.054-1.176-.25-1.815-.416-2.24ZM21 27.192a6.192 6.192 0 1 1 0-12.384 6.192 6.192 0 0 1 0 12.384Zm6.437-11.182a1.447 1.447 0 1 1 0-2.894 1.447 1.447 0 0 1 0 2.894Z" fill="currentColor"/><path d="M21 0C9.404 0 0 9.404 0 21s9.404 21 21 21 21-9.404 21-21S32.596 0 21 0Zm11.986 25.971c-.058 1.284-.263 2.16-.56 2.928a6.166 6.166 0 0 1-3.527 3.526c-.767.298-1.644.502-2.927.56-1.286.06-1.697.074-4.972.074-3.275 0-3.685-.014-4.971-.073-1.284-.059-2.16-.263-2.927-.56a5.908 5.908 0 0 1-2.136-1.392A5.91 5.91 0 0 1 9.575 28.9c-.298-.767-.502-1.644-.56-2.927-.06-1.286-.074-1.697-.074-4.972 0-3.275.014-3.686.073-4.971.058-1.284.262-2.16.56-2.928a5.908 5.908 0 0 1 1.392-2.135A5.907 5.907 0 0 1 13.1 9.575c.767-.298 1.644-.502 2.928-.56 1.285-.06 1.696-.074 4.971-.074 3.275 0 3.686.015 4.971.073 1.284.059 2.16.263 2.928.56a5.912 5.912 0 0 1 2.136 1.392 5.909 5.909 0 0 1 1.39 2.135c.299.767.503 1.644.561 2.928.059 1.285.073 1.696.073 4.971 0 3.275-.014 3.686-.073 4.971Z" fill="currentColor"/></svg><svg fill="none" viewBox="0 0 28 24" id="itemHeart" xmlns="http://www.w3.org/2000/svg"><path d="M20.563 0c-1.52 0-2.913.467-4.14 1.39C15.244 2.272 14.46 3.4 14 4.217c-.461-.819-1.245-1.945-2.422-2.829A6.757 6.757 0 0 0 7.438 0C3.197 0 0 3.367 0 7.833c0 4.824 3.99 8.124 10.028 13.12 1.025.85 2.188 1.811 3.396 2.837A.89.89 0 0 0 14 24a.89.89 0 0 0 .576-.21 342.022 342.022 0 0 1 3.397-2.837C24.01 15.957 28 12.657 28 7.833 28 3.367 24.802 0 20.562 0Z" fill="currentColor"/></svg><svg fill="none" viewBox="0 0 112 42" id="logo" xmlns="http://www.w3.org/2000/svg"><path d="M21.37.837c-.862 1.386-1.256 2.51-1.15 3.29.083.672.362 1.279.772 1.705.582.607.566.616.828-.746.09-.468.197-.886.238-.927.099-.098.222.14.542 1.083.311.943.434 1 .836.394.378-.566.542-1.206.5-1.928-.032-.509-.098-.714-.418-1.354-.369-.73-1.394-2.19-1.591-2.247-.05-.017-.304.311-.558.73ZM27.267 3.56c-1.476.402-2.182.952-2.46 1.92-.116.393-.107 1 .016 1 .024 0 .311-.188.648-.418.328-.23.64-.41.689-.394.049.025-.05.32-.238.73l-.328.698.221.024c.648.082 1.526-.467 1.879-1.173.221-.46.525-1.763.525-2.28 0-.361-.017-.37-.952-.107ZM9.762 4.815c0 .878.123 1.674.32 2.117.295.648 1.107 1.263 1.673 1.271.27 0 .279-.082.025-.705-.419-1.034-.378-1.075.46-.386.639.525.72.509.72-.148 0-.812-.442-1.55-1.238-2.042-.41-.254-1.706-.82-1.87-.82-.057 0-.09.27-.09.713ZM14.766 4.996c0 1.058.106 1.64.377 2.116.205.36.738.829 1.124.993.221.09.713.139.713.065 0-.024-.106-.328-.246-.68-.393-1.01-.352-1.05.451-.394.304.246.575.434.616.41.238-.148.09-1.206-.255-1.764-.295-.476-.927-.927-1.813-1.296-1.066-.435-.967-.492-.967.55ZM19.08 6.948c-.574 1.78-.533 2.584.197 3.42.23.263.632.542.78.542.024 0 .04-.369.04-.82 0-.451.033-.82.074-.82.041 0 .238.262.435.59.197.32.394.599.443.615.05.017.164-.073.246-.197.123-.18.156-.377.156-.967 0-.82-.057-.977-.607-1.641-.336-.41-1.378-1.354-1.493-1.354-.033 0-.156.288-.27.632ZM28.514 7.432c-1.206.328-1.878.771-2.248 1.485-.164.295-.27.951-.196 1.197l.065.238.607-.418c.558-.377.82-.5.82-.377 0 .024-.13.303-.287.615-.393.787-.385.853.115.795.73-.09 1.452-.689 1.74-1.435.188-.517.393-1.526.401-2.01 0-.369-.008-.369-1.017-.09ZM34.322 7.416c-1.354.369-2.018.836-2.37 1.648-.14.328-.206 1.132-.108 1.239.033.025.32-.14.648-.37.51-.36.813-.5.813-.385 0 .017-.132.304-.288.648-.155.345-.287.665-.287.722 0 .066.123.082.427.05.722-.09 1.42-.673 1.706-1.436.197-.517.402-1.526.41-2.01 0-.36-.016-.369-.951-.106ZM3.773 7.76c-.426.115-.787.222-.812.238-.14.148 1.493 1.928 1.985 2.166.69.328 1.584.295 2.035-.066l.197-.156-.632-.394c-.861-.54-.845-.648.09-.582.402.025.747.025.771 0 .025-.016.009-.148-.04-.27-.1-.304-.64-.788-1.083-.993-.5-.23-1.526-.205-2.51.057ZM23.494 8.548c-1.616 1.69-2.067 2.748-1.715 4.044.172.656.566 1.247.739 1.107.057-.049.262-.46.459-.91.517-1.206.59-1.198.73.131.057.492.131.935.164.976.205.213 1.042-.689 1.32-1.41.247-.665.28-1.05.124-1.822-.18-.87-.944-2.789-1.116-2.789-.033 0-.353.304-.705.673ZM15.094 10c0 .91.115 1.886.295 2.518.304 1.066 1.296 1.96 2.289 2.059.557.057.557.057.123-.985-.525-1.255-.46-1.304.599-.467.746.59.828.632.918.484.099-.156.05-1.181-.074-1.534-.418-1.181-1.263-1.83-3.387-2.609l-.763-.279V10ZM9.68 9.655c-.378.066-1.436.37-1.502.435-.09.082.845 1.312 1.28 1.681.583.509.927.648 1.616.648.443.009.697-.032.927-.147.164-.082.304-.18.304-.213s-.296-.255-.665-.484c-.369-.238-.632-.46-.607-.51.041-.056.304-.065.78-.024.459.033.738.025.77-.033.025-.04-.073-.262-.22-.475-.198-.296-.395-.468-.78-.665-.46-.238-.6-.27-1.108-.262-.328.008-.68.033-.795.049ZM28.104 11.985c-1.05.14-1.92.705-2.37 1.534-.263.484-.378 1.082-.214 1.082.066 0 .484-.114.927-.246.861-.262 1.115-.295 1.115-.164 0 .041-.295.394-.656.771-.36.386-.656.739-.656.78 0 .156.599.279 1.165.23 1.386-.115 2.206-.862 3.224-2.945l.459-.927-.205-.05c-.37-.098-2.215-.147-2.79-.065ZM33.01 12.469a3.612 3.612 0 0 0-.83.23c-.598.311-1.172 1.058-1.172 1.533 0 .246.082.255.664.058 1.067-.37 1.116-.32.402.426-.27.287-.492.558-.492.6 0 .13.59.212 1.058.147.615-.082 1.173-.451 1.6-1.05.46-.64 1-1.764.902-1.854-.115-.107-1.567-.164-2.133-.09ZM5.537 13.313c-.5.173-1.173.525-1.739.936-.287.196-.517.377-.517.402 0 .09 1.526 1.025 1.928 1.173.648.246 1.329.23 1.887-.041.434-.205.82-.558.738-.69-.025-.04-.238-.106-.476-.163-.78-.165-1.05-.255-1-.329.024-.04.36-.172.738-.287.385-.123.697-.246.697-.279 0-.114-.46-.492-.755-.615-.434-.188-1.115-.23-1.5-.107ZM12.1 14.479a9.345 9.345 0 0 0-1.28.426c-.755.32-2.37 1.19-2.37 1.272 0 .114 1.747 1.558 2.41 1.993 1.297.845 2.314 1.1 3.438.87.861-.181 1.952-.878 1.846-1.174-.025-.057-.5-.27-1.058-.467s-1.124-.41-1.255-.476c-.394-.205-.115-.336 1.18-.558.649-.106 1.215-.238 1.256-.279.164-.164-.632-1-1.255-1.32-.427-.222-1.493-.492-1.879-.492-.164.008-.623.098-1.033.205ZM36.873 14.511c-.37.09-.755.312-.894.517-.238.336-.172.394.402.394.303 0 .533.033.533.082s-.205.18-.451.303c-.246.123-.451.255-.451.287 0 .14.557.345.943.345.541 0 .91-.189 1.583-.812l.55-.509-.328-.164c-.698-.353-1.493-.533-1.887-.443ZM20.902 15.734c-4.57 6.48-5.603 11.131-3.799 17.12a27.729 27.729 0 0 0 1.182 3.232c.188.426.336.779.336.779 0 .008-.36.008-.804.008-.697 0-.828-.025-1.058-.189-1.107-.787-2.207-.73-3.782.197-.877.525-2.863 2.018-2.961 2.231-.123.263-.115 1.19.008 1.346.173.213 4.151 1.074 6.169 1.337 2.756.353 7.473.189 9.81-.336.985-.222 4.308-1.124 4.373-1.182.115-.098-.722-1.033-1.288-1.427-1.099-.788-1.936-1.009-4.192-1.116-2.337-.106-2.969-.311-3.863-1.238-.804-.854-1.157-1.87-1.879-5.406-.443-2.158-.476-2.683-.213-3.224.254-.525.525-.73 1.813-1.362 1.255-.623 1.887-1.025 2.797-1.788.91-.763 1.895-1.928 2.543-3.019.189-.32.189-.328.016-.205-.098.066-1.394.935-2.87 1.936-2.732 1.838-4.07 2.6-4.447 2.56-.188-.025-.213-.066-.238-.386-.032-.468.19-1.985.443-3.002.329-1.305.566-2.043 1.608-4.955.534-1.501.96-2.748.944-2.765-.017-.016-.304.37-.648.854Z" fill="#A4EE08"/><path d="M24.076 16.373c-.09.017-.353.074-.59.123-.747.148-1.477.878-1.617 1.608-.057.329-.04.329.813.066.36-.115.68-.205.722-.205.147 0 .024.197-.452.697-.566.607-.558.697.074.755.64.066 1.288-.205 1.797-.747.393-.41 1.361-2.116 1.263-2.206-.057-.058-1.813-.131-2.01-.09ZM29.252 17.514c-.779.147-1.181.32-1.739.746-.845.64-1.427 1.567-1.452 2.313-.016.468-.082.468 1.428.009 1.09-.329 1.386-.378 1.386-.246 0 .114-.361.533-1.132 1.337-.377.393-.673.763-.656.82.098.295 1.452.41 2.272.189 1.542-.41 2.494-1.444 3.708-4.06l.484-1.026-.23-.066c-.123-.033-.943-.082-1.821-.098-1.206-.033-1.756-.008-2.248.082ZM34.74 18.736c-.279.123-.574.427-.476.484.033.016.263.082.5.14.23.049.427.123.427.163 0 .033-.172.107-.385.165-.222.057-.427.139-.468.172-.114.106.09.295.484.451.5.189.968.098 1.608-.295.853-.525.804-.468.525-.706-.673-.574-1.64-.828-2.215-.574ZM7.834 18.818c-.476.147-.984.426-1.665.894l-.599.41.435.32c1.238.902 2.321 1.214 3.183.927.426-.14 1.099-.656 1.025-.78-.025-.032-.238-.106-.468-.163-.861-.197-1.05-.255-1.05-.328 0-.041.312-.173.698-.287.377-.115.713-.247.738-.288.074-.123-.558-.574-.976-.697-.484-.148-.878-.148-1.321-.008ZM13.396 20.262c-.59.156-2.404 1.017-2.404 1.148s1.518 1.313 2.076 1.616c.557.296.631.312 1.329.312.615 0 .803-.033 1.123-.197.214-.115.468-.279.558-.377.213-.23.164-.271-.697-.575-1.108-.385-1.1-.459.04-.656.427-.074.813-.164.846-.197.106-.106-.41-.648-.796-.845-.37-.188-1.066-.393-1.32-.385-.09 0-.435.074-.755.156Z" fill="#A4EE08"/><path d="M53.376 13.928c-2.672-.368-3.44-1.088-3.44-2.032 0-1.52 1.68-2.032 3.296-2.032 2.608 0 2.704 1.328 2.704 3.472l2.24-.304c0-2.464-1.824-3.424-4.944-3.424-2.224 0-4.256.912-4.256 2.944s1.008 3.008 4.368 3.504c2.688.4 4.272.944 4.272 2.4 0 2.032-1.152 2.544-3.856 2.544-2.528 0-2.592-1.6-2.592-3.872l-2.464.368c0 2.784 1.696 3.76 5.056 3.76 3.392 0 4.976-.832 4.976-3.28 0-1.808-.688-3.408-5.36-4.048ZM59.998 17.016c0 2.432 1.824 4.24 4.848 4.24 2.48 0 3.647-1.216 3.92-1.44l-.129-.16c-1.04.896-2.335 1.328-3.791 1.328-1.857 0-2.353-1.664-2.449-3.232h6.16c0-2.656-.352-4.992-3.712-4.992-2.527 0-4.847 1.488-4.847 4.256Zm4.848-4c2.944 0 3.407 2.08 3.407 4.48h-5.871c-.064-1.696.175-4.48 2.464-4.48ZM74.58 21.256c2.48 0 3.648-1.216 3.92-1.44l-.128-.16c-1.04.896-2.336 1.328-3.792 1.328-1.904 0-2.48-1.728-2.48-3.968 0-2.672.928-4 2.48-4 2.16 0 2.992.944 3.168 1.984l.272-.064c-.176-1.168-1.248-2.176-3.44-2.176-2.88 0-4.848 1.792-4.848 4.256 0 2.432 1.824 4.24 4.848 4.24ZM79.154 17.016c0 2.8 2.432 4.24 5.056 4.24 2.608 0 5.056-1.44 5.056-4.24 0-2.816-2.448-4.272-5.056-4.272-2.624 0-5.056 1.456-5.056 4.272Zm5.056-4.032c2 0 2.72 1.264 2.72 4.032 0 2.72-.608 4-2.72 4-2.176 0-2.72-1.28-2.72-4 0-2.768.736-4.032 2.72-4.032ZM90.628 21H92.9c0-2.336.448-7.984 3.648-7.984.96 0 1.36.576 1.36 2.32V21h2.288v-3.68c0-3.056-1.088-4.576-3.648-4.576-2.448 0-3.312 2.928-3.648 4.928V13h-2.272v8ZM105.736 21.256c1.792 0 2.656-.88 3.328-2.896.16-.464.24-.96.32-1.44v4.096h2.272V8.792h-2.272v4.56c-.448-.224-1.344-.608-2.688-.608-2.624 0-5.136.608-5.136 4.16 0 3.424 1.872 4.352 4.176 4.352Zm1.328-8.288c1.344 0 1.888.416 2.32.624-.016 2.128-.288 7.408-3.28 7.408-1.728 0-2.208-1.776-2.208-4.112 0-3.376 1.184-3.92 3.168-3.92ZM48.8 28.848V40h2.272v-5.664h6.144V40h2.272V28.848h-2.272v5.232h-6.144v-5.232H48.8ZM64.617 40.256c2.512 0 3.264-1.984 3.616-4.08l.032-.192V40h2.272v-5.008c0-2.768-2.4-3.248-4.336-3.248-2.896 0-4.176 1.056-4.672 1.872l1.664.8c-1.328.288-2.352 1.2-2.352 2.672 0 2.624 1.632 3.168 3.776 3.168Zm.512-5.744h3.056c-.192 2.304-.64 5.488-3.584 5.488-.944 0-1.424-.656-1.424-2.752 0-2 .656-2.736 1.952-2.736Zm-1.296-.208c0-.384.544-2.368 2.272-2.368 2.016 0 2.112.688 2.112 2.32h-3.616c-.272 0-.528.016-.768.048ZM72.144 40h2.272c0-2.336.448-7.984 3.648-7.984.96 0 1.36.576 1.36 2.32V40h2.288v-3.68c0-3.056-1.088-4.576-3.648-4.576-2.448 0-3.312 2.928-3.648 4.928V32h-2.272v8ZM87.252 40.256c1.792 0 2.656-.88 3.328-2.896.16-.464.24-.96.32-1.44v4.096h2.272V27.792H90.9v4.56c-.448-.224-1.344-.608-2.688-.608-2.624 0-5.136.608-5.136 4.16 0 3.424 1.872 4.352 4.176 4.352Zm1.328-8.288c1.344 0 1.888.416 2.32.624C90.884 34.72 90.612 40 87.62 40c-1.728 0-2.208-1.776-2.208-4.112 0-3.376 1.184-3.92 3.168-3.92Z" fill="#272727"/></svg><svg fill="none" viewBox="0 0 22 24" id="persone" xmlns="http://www.w3.org/2000/svg"><path d="M10.834 11.56c1.745 0 3.255-.569 4.49-1.693 1.235-1.123 1.86-2.498 1.86-4.087 0-1.588-.625-2.963-1.86-4.087C14.09.57 12.58 0 10.834 0c-1.746 0-3.256.57-4.49 1.693-1.236 1.124-1.862 2.5-1.862 4.087 0 1.589.626 2.964 1.861 4.088 1.235 1.123 2.746 1.693 4.49 1.693ZM7.436 2.689c.947-.862 2.059-1.282 3.398-1.282 1.338 0 2.45.42 3.398 1.282.947.862 1.408 1.874 1.408 3.092 0 1.219-.461 2.23-1.408 3.093-.948.862-2.06 1.282-3.398 1.282-1.339 0-2.45-.42-3.398-1.282-.948-.862-1.408-1.874-1.408-3.093 0-1.218.46-2.23 1.408-3.092ZM21.947 18.455a13.044 13.044 0 0 0-.214-1.517 11.061 11.061 0 0 0-.41-1.524 7.208 7.208 0 0 0-.689-1.422 5.456 5.456 0 0 0-1.038-1.232 4.663 4.663 0 0 0-1.492-.853 5.609 5.609 0 0 0-1.904-.314c-.27 0-.53.1-1.032.399-.31.183-.672.396-1.076.63-.345.2-.813.389-1.391.559a6.024 6.024 0 0 1-1.702.25 6.029 6.029 0 0 1-1.702-.25c-.577-.17-1.045-.358-1.39-.558-.4-.233-.762-.445-1.076-.632-.503-.297-.763-.398-1.032-.398-.686 0-1.326.106-1.904.314a4.658 4.658 0 0 0-1.492.853 5.455 5.455 0 0 0-1.038 1.232 7.222 7.222 0 0 0-.689 1.422c-.165.469-.303.982-.41 1.524a12.969 12.969 0 0 0-.213 1.517A18.7 18.7 0 0 0 0 19.873c0 1.252.438 2.267 1.3 3.015C2.153 23.626 3.28 24 4.652 24h12.697c1.37 0 2.498-.374 3.35-1.112.863-.748 1.301-1.762 1.301-3.016 0-.483-.018-.96-.053-1.417Zm-2.313 3.414c-.563.487-1.31.725-2.286.725H4.652c-.976 0-1.723-.238-2.286-.725-.552-.479-.82-1.132-.82-1.996 0-.45.016-.894.048-1.32.032-.419.097-.878.193-1.366.095-.482.217-.935.36-1.344a5.88 5.88 0 0 1 .561-1.157c.223-.357.48-.663.763-.91.265-.23.6-.42.993-.562a3.865 3.865 0 0 1 1.217-.213c.054.026.15.076.306.169.318.188.684.403 1.089.638.456.265 1.044.504 1.746.71.718.212 1.45.32 2.177.32.727 0 1.46-.108 2.177-.32.703-.206 1.291-.445 1.748-.71.414-.241.77-.45 1.088-.638.156-.093.252-.143.306-.17.444.012.853.083 1.218.214.393.142.727.331.992.562.283.247.54.553.763.91.234.375.423.764.56 1.156.145.41.266.863.361 1.345.096.489.161.948.193 1.366.033.424.05.869.05 1.32 0 .864-.269 1.517-.821 1.996Z" fill="#272727"/></svg><svg fill="none" viewBox="0 0 24 24" id="search" xmlns="http://www.w3.org/2000/svg"><path d="M3.018 3.018A10.237 10.237 0 0 0 0 10.304c0 2.753 1.072 5.34 3.018 7.286a10.237 10.237 0 0 0 7.286 3.019c2.517 0 4.895-.897 6.772-2.538l5.722 5.723a.704.704 0 1 0 .996-.995l-5.723-5.723a10.228 10.228 0 0 0 2.538-6.772c0-2.752-1.072-5.34-3.019-7.286A10.237 10.237 0 0 0 10.304 0c-2.752 0-5.34 1.072-7.286 3.018Zm13.577.995c3.469 3.47 3.469 9.113 0 12.582-3.469 3.469-9.113 3.469-12.581 0a8.868 8.868 0 0 1-2.602-6.29 8.87 8.87 0 0 1 2.602-6.292c3.468-3.468 9.112-3.468 12.581 0Z" fill="#272727"/></svg><svg fill="none" viewBox="0 0 42 42" id="vk" xmlns="http://www.w3.org/2000/svg"><path d="M21 0C9.402 0 0 9.402 0 21s9.402 21 21 21 21-9.402 21-21S32.598 0 21 0Zm10.652 23.271c.98.956 2.015 1.856 2.893 2.91.39.467.756.95 1.036 1.493.398.773.038 1.622-.654 1.668h-4.302c-1.112.091-1.996-.357-2.741-1.117-.595-.605-1.148-1.252-1.72-1.878a4.027 4.027 0 0 0-.775-.689c-.587-.382-1.096-.265-1.433.348-.342.623-.42 1.314-.453 2.008-.047 1.015-.352 1.28-1.37 1.328-2.175.101-4.24-.229-6.157-1.325-1.692-.967-3.002-2.332-4.143-3.878-2.222-3.013-3.924-6.32-5.453-9.721-.344-.766-.093-1.176.752-1.192 1.405-.027 2.809-.024 4.213-.001.571.009.95.336 1.17.875.758 1.867 1.688 3.643 2.854 5.29.31.44.627.877 1.08 1.186.497.342.877.23 1.112-.327.15-.354.216-.732.248-1.11.112-1.299.125-2.596-.068-3.89-.12-.808-.575-1.33-1.382-1.484-.41-.078-.35-.23-.15-.464.346-.406.67-.657 1.32-.657h4.861c.766.15.938.493 1.042 1.265l.004 5.402c-.009.299.15 1.184.686 1.38.43.141.714-.204.97-.476 1.166-1.237 1.997-2.697 2.74-4.208.329-.666.612-1.356.887-2.047.204-.51.522-.762 1.1-.753l4.68.005c.138 0 .278.002.414.025.79.135 1.006.474.761 1.244-.384 1.21-1.13 2.216-1.86 3.226-.782 1.081-1.616 2.124-2.39 3.21-.711.993-.655 1.492.228 2.354Z" fill="currentColor"/></svg></svg>